<mxfile host="app.diagrams.net" agent="Mozilla/5.0 (Windows NT 10.0; Win64; x64) AppleWebKit/537.36 (KHTML, like Gecko) Chrome/131.0.0.0 Safari/537.36" version="24.8.6">
  <diagram id="C5RBs43oDa-KdzZeNtuy" name="Page-1">
    <mxGraphModel dx="1434" dy="772" grid="1" gridSize="10" guides="1" tooltips="1" connect="1" arrows="1" fold="1" page="1" pageScale="1" pageWidth="827" pageHeight="1169" math="0" shadow="0">
      <root>
        <mxCell id="WIyWlLk6GJQsqaUBKTNV-0" />
        <mxCell id="WIyWlLk6GJQsqaUBKTNV-1" parent="WIyWlLk6GJQsqaUBKTNV-0" />
        <mxCell id="NGGsb7IZtr_YNf41euMT-1" value="" style="edgeStyle=orthogonalEdgeStyle;rounded=0;orthogonalLoop=1;jettySize=auto;html=1;" edge="1" parent="WIyWlLk6GJQsqaUBKTNV-1" source="WIyWlLk6GJQsqaUBKTNV-3" target="NGGsb7IZtr_YNf41euMT-0">
          <mxGeometry relative="1" as="geometry" />
        </mxCell>
        <mxCell id="WIyWlLk6GJQsqaUBKTNV-3" value="start&amp;nbsp;" style="rounded=1;whiteSpace=wrap;html=1;fontSize=12;glass=0;strokeWidth=1;shadow=0;" parent="WIyWlLk6GJQsqaUBKTNV-1" vertex="1">
          <mxGeometry x="340" y="90" width="120" height="40" as="geometry" />
        </mxCell>
        <mxCell id="NGGsb7IZtr_YNf41euMT-3" value="" style="edgeStyle=orthogonalEdgeStyle;rounded=0;orthogonalLoop=1;jettySize=auto;html=1;" edge="1" parent="WIyWlLk6GJQsqaUBKTNV-1" source="NGGsb7IZtr_YNf41euMT-0" target="NGGsb7IZtr_YNf41euMT-2">
          <mxGeometry relative="1" as="geometry" />
        </mxCell>
        <mxCell id="NGGsb7IZtr_YNf41euMT-9" value="" style="edgeStyle=orthogonalEdgeStyle;rounded=0;orthogonalLoop=1;jettySize=auto;html=1;entryX=0.5;entryY=0;entryDx=0;entryDy=0;" edge="1" parent="WIyWlLk6GJQsqaUBKTNV-1" source="NGGsb7IZtr_YNf41euMT-0" target="NGGsb7IZtr_YNf41euMT-6">
          <mxGeometry relative="1" as="geometry">
            <mxPoint x="560" y="270" as="targetPoint" />
          </mxGeometry>
        </mxCell>
        <mxCell id="NGGsb7IZtr_YNf41euMT-0" value="&lt;p&gt;&lt;strong&gt;Initialize Game Grid&lt;/strong&gt;&lt;/p&gt;" style="rounded=1;whiteSpace=wrap;html=1;glass=0;strokeWidth=1;shadow=0;" vertex="1" parent="WIyWlLk6GJQsqaUBKTNV-1">
          <mxGeometry x="340" y="200" width="120" height="60" as="geometry" />
        </mxCell>
        <mxCell id="NGGsb7IZtr_YNf41euMT-7" value="" style="edgeStyle=orthogonalEdgeStyle;rounded=0;orthogonalLoop=1;jettySize=auto;html=1;" edge="1" parent="WIyWlLk6GJQsqaUBKTNV-1" source="NGGsb7IZtr_YNf41euMT-2" target="NGGsb7IZtr_YNf41euMT-6">
          <mxGeometry relative="1" as="geometry" />
        </mxCell>
        <mxCell id="NGGsb7IZtr_YNf41euMT-2" value="Create a 15x30 game grid." style="rhombus;whiteSpace=wrap;html=1;rounded=1;glass=0;strokeWidth=1;shadow=0;" vertex="1" parent="WIyWlLk6GJQsqaUBKTNV-1">
          <mxGeometry x="360" y="330" width="80" height="80" as="geometry" />
        </mxCell>
        <mxCell id="NGGsb7IZtr_YNf41euMT-6" value="set the initial score to 0" style="rhombus;whiteSpace=wrap;html=1;rounded=1;glass=0;strokeWidth=1;shadow=0;" vertex="1" parent="WIyWlLk6GJQsqaUBKTNV-1">
          <mxGeometry x="520" y="330" width="80" height="80" as="geometry" />
        </mxCell>
        <mxCell id="NGGsb7IZtr_YNf41euMT-15" value="Game Loop" style="rounded=1;whiteSpace=wrap;html=1;" vertex="1" parent="WIyWlLk6GJQsqaUBKTNV-1">
          <mxGeometry x="110" y="200" width="120" height="60" as="geometry" />
        </mxCell>
        <mxCell id="NGGsb7IZtr_YNf41euMT-23" value="" style="edgeStyle=orthogonalEdgeStyle;rounded=0;orthogonalLoop=1;jettySize=auto;html=1;" edge="1" parent="WIyWlLk6GJQsqaUBKTNV-1" source="NGGsb7IZtr_YNf41euMT-16" target="NGGsb7IZtr_YNf41euMT-22">
          <mxGeometry relative="1" as="geometry" />
        </mxCell>
        <mxCell id="NGGsb7IZtr_YNf41euMT-16" value="Display score and level" style="shape=hexagon;perimeter=hexagonPerimeter2;whiteSpace=wrap;html=1;fixedSize=1;" vertex="1" parent="WIyWlLk6GJQsqaUBKTNV-1">
          <mxGeometry x="115" y="337.5" width="110" height="65" as="geometry" />
        </mxCell>
        <mxCell id="NGGsb7IZtr_YNf41euMT-17" value="" style="endArrow=classic;html=1;rounded=0;entryX=0.5;entryY=0;entryDx=0;entryDy=0;exitX=0.5;exitY=1;exitDx=0;exitDy=0;" edge="1" parent="WIyWlLk6GJQsqaUBKTNV-1" source="NGGsb7IZtr_YNf41euMT-15" target="NGGsb7IZtr_YNf41euMT-16">
          <mxGeometry width="50" height="50" relative="1" as="geometry">
            <mxPoint x="400" y="560" as="sourcePoint" />
            <mxPoint x="440" y="470" as="targetPoint" />
          </mxGeometry>
        </mxCell>
        <mxCell id="NGGsb7IZtr_YNf41euMT-22" value="continuously show the&lt;div&gt;&amp;nbsp;current score on screen&amp;nbsp;&amp;nbsp;&lt;/div&gt;" style="rhombus;whiteSpace=wrap;html=1;" vertex="1" parent="WIyWlLk6GJQsqaUBKTNV-1">
          <mxGeometry x="120" y="455" width="132.5" height="130" as="geometry" />
        </mxCell>
        <mxCell id="NGGsb7IZtr_YNf41euMT-24" value="Spawn Elements" style="shape=hexagon;perimeter=hexagonPerimeter2;whiteSpace=wrap;html=1;fixedSize=1;" vertex="1" parent="WIyWlLk6GJQsqaUBKTNV-1">
          <mxGeometry x="290" y="620" width="110" height="65" as="geometry" />
        </mxCell>
        <mxCell id="NGGsb7IZtr_YNf41euMT-25" value="" style="endArrow=classic;html=1;rounded=0;entryX=0.5;entryY=0;entryDx=0;entryDy=0;" edge="1" parent="WIyWlLk6GJQsqaUBKTNV-1" source="NGGsb7IZtr_YNf41euMT-22" target="NGGsb7IZtr_YNf41euMT-24">
          <mxGeometry width="50" height="50" relative="1" as="geometry">
            <mxPoint x="390" y="820" as="sourcePoint" />
            <mxPoint x="440" y="770" as="targetPoint" />
          </mxGeometry>
        </mxCell>
        <mxCell id="NGGsb7IZtr_YNf41euMT-26" value="" style="endArrow=classic;html=1;rounded=0;entryX=0.716;entryY=0.017;entryDx=0;entryDy=0;entryPerimeter=0;exitX=0.191;exitY=0.954;exitDx=0;exitDy=0;exitPerimeter=0;" edge="1" parent="WIyWlLk6GJQsqaUBKTNV-1" source="NGGsb7IZtr_YNf41euMT-24" target="NGGsb7IZtr_YNf41euMT-30">
          <mxGeometry width="50" height="50" relative="1" as="geometry">
            <mxPoint x="360" y="980" as="sourcePoint" />
            <mxPoint x="340" y="1020" as="targetPoint" />
          </mxGeometry>
        </mxCell>
        <mxCell id="NGGsb7IZtr_YNf41euMT-27" value="" style="endArrow=classic;html=1;rounded=0;exitX=0.845;exitY=1.077;exitDx=0;exitDy=0;exitPerimeter=0;entryX=0.358;entryY=-0.067;entryDx=0;entryDy=0;entryPerimeter=0;" edge="1" parent="WIyWlLk6GJQsqaUBKTNV-1" source="NGGsb7IZtr_YNf41euMT-24" target="NGGsb7IZtr_YNf41euMT-33">
          <mxGeometry width="50" height="50" relative="1" as="geometry">
            <mxPoint x="390" y="920" as="sourcePoint" />
            <mxPoint x="460" y="1020" as="targetPoint" />
          </mxGeometry>
        </mxCell>
        <mxCell id="NGGsb7IZtr_YNf41euMT-30" value="Spawn 90 blocks with health calculated as &lt;code&gt;(level // 5 + 1)&lt;/code&gt;" style="shape=parallelogram;perimeter=parallelogramPerimeter;whiteSpace=wrap;html=1;fixedSize=1;" vertex="1" parent="WIyWlLk6GJQsqaUBKTNV-1">
          <mxGeometry x="150" y="750" width="190" height="60" as="geometry" />
        </mxCell>
        <mxCell id="NGGsb7IZtr_YNf41euMT-32" style="edgeStyle=orthogonalEdgeStyle;rounded=0;orthogonalLoop=1;jettySize=auto;html=1;exitX=0.5;exitY=1;exitDx=0;exitDy=0;" edge="1" parent="WIyWlLk6GJQsqaUBKTNV-1">
          <mxGeometry relative="1" as="geometry">
            <mxPoint x="495" y="1095" as="sourcePoint" />
            <mxPoint x="495" y="1095" as="targetPoint" />
          </mxGeometry>
        </mxCell>
        <mxCell id="NGGsb7IZtr_YNf41euMT-33" value="spawn the player paddle and ball with speed&amp;nbsp;calculated as&lt;div&gt;(level // 3 + 1)&lt;/div&gt;" style="shape=parallelogram;perimeter=parallelogramPerimeter;whiteSpace=wrap;html=1;fixedSize=1;" vertex="1" parent="WIyWlLk6GJQsqaUBKTNV-1">
          <mxGeometry x="390" y="740" width="190" height="60" as="geometry" />
        </mxCell>
        <mxCell id="NGGsb7IZtr_YNf41euMT-35" value="" style="endArrow=none;html=1;rounded=0;entryX=0.458;entryY=1.033;entryDx=0;entryDy=0;entryPerimeter=0;" edge="1" parent="WIyWlLk6GJQsqaUBKTNV-1" target="NGGsb7IZtr_YNf41euMT-33">
          <mxGeometry width="50" height="50" relative="1" as="geometry">
            <mxPoint x="220" y="980" as="sourcePoint" />
            <mxPoint x="440" y="1120" as="targetPoint" />
            <Array as="points">
              <mxPoint x="490" y="990" />
            </Array>
          </mxGeometry>
        </mxCell>
        <mxCell id="NGGsb7IZtr_YNf41euMT-36" value="" style="endArrow=none;html=1;rounded=0;entryX=0.416;entryY=0.967;entryDx=0;entryDy=0;entryPerimeter=0;" edge="1" parent="WIyWlLk6GJQsqaUBKTNV-1" target="NGGsb7IZtr_YNf41euMT-30">
          <mxGeometry width="50" height="50" relative="1" as="geometry">
            <mxPoint x="220" y="980" as="sourcePoint" />
            <mxPoint x="270" y="1100" as="targetPoint" />
          </mxGeometry>
        </mxCell>
        <mxCell id="NGGsb7IZtr_YNf41euMT-37" value="" style="endArrow=classic;html=1;rounded=0;" edge="1" parent="WIyWlLk6GJQsqaUBKTNV-1" target="NGGsb7IZtr_YNf41euMT-38">
          <mxGeometry width="50" height="50" relative="1" as="geometry">
            <mxPoint x="370" y="990" as="sourcePoint" />
            <mxPoint x="400" y="1220" as="targetPoint" />
          </mxGeometry>
        </mxCell>
        <mxCell id="NGGsb7IZtr_YNf41euMT-44" value="" style="edgeStyle=orthogonalEdgeStyle;rounded=0;orthogonalLoop=1;jettySize=auto;html=1;" edge="1" parent="WIyWlLk6GJQsqaUBKTNV-1" source="NGGsb7IZtr_YNf41euMT-38" target="NGGsb7IZtr_YNf41euMT-43">
          <mxGeometry relative="1" as="geometry" />
        </mxCell>
        <mxCell id="NGGsb7IZtr_YNf41euMT-38" value="&#xa;Ball Movement&#xa;&#xa;" style="rounded=1;whiteSpace=wrap;html=1;" vertex="1" parent="WIyWlLk6GJQsqaUBKTNV-1">
          <mxGeometry x="315" y="1060" width="120" height="60" as="geometry" />
        </mxCell>
        <mxCell id="NGGsb7IZtr_YNf41euMT-39" value="" style="endArrow=classic;html=1;rounded=0;exitX=0.5;exitY=1;exitDx=0;exitDy=0;" edge="1" parent="WIyWlLk6GJQsqaUBKTNV-1" source="NGGsb7IZtr_YNf41euMT-38">
          <mxGeometry width="50" height="50" relative="1" as="geometry">
            <mxPoint x="375" y="1280" as="sourcePoint" />
            <mxPoint x="375" y="1180" as="targetPoint" />
          </mxGeometry>
        </mxCell>
        <mxCell id="NGGsb7IZtr_YNf41euMT-42" value="&lt;li&gt;&lt;ul&gt;&lt;li&gt;set the ball&#39;s default movement to downwards&lt;/li&gt;&lt;/ul&gt;&lt;/li&gt;&lt;li&gt;&lt;p&gt;&lt;/p&gt;&lt;/li&gt;" style="shape=parallelogram;perimeter=parallelogramPerimeter;whiteSpace=wrap;html=1;fixedSize=1;" vertex="1" parent="WIyWlLk6GJQsqaUBKTNV-1">
          <mxGeometry x="285" y="1180" width="174" height="60" as="geometry" />
        </mxCell>
        <mxCell id="NGGsb7IZtr_YNf41euMT-43" value="&#xa;Player Input&#xa;&#xa;" style="whiteSpace=wrap;html=1;rounded=1;" vertex="1" parent="WIyWlLk6GJQsqaUBKTNV-1">
          <mxGeometry x="515" y="1060" width="120" height="60" as="geometry" />
        </mxCell>
        <mxCell id="NGGsb7IZtr_YNf41euMT-45" value="" style="endArrow=classic;html=1;rounded=0;exitX=0.5;exitY=1;exitDx=0;exitDy=0;" edge="1" parent="WIyWlLk6GJQsqaUBKTNV-1" source="NGGsb7IZtr_YNf41euMT-43">
          <mxGeometry width="50" height="50" relative="1" as="geometry">
            <mxPoint x="625" y="1210" as="sourcePoint" />
            <mxPoint x="575" y="1190" as="targetPoint" />
          </mxGeometry>
        </mxCell>
        <mxCell id="NGGsb7IZtr_YNf41euMT-46" value="If the user clicks, update the player&#39;s x-coordinate to align with the mouse’s x-coordinate." style="shape=parallelogram;perimeter=parallelogramPerimeter;whiteSpace=wrap;html=1;fixedSize=1;" vertex="1" parent="WIyWlLk6GJQsqaUBKTNV-1">
          <mxGeometry x="480" y="1190" width="190" height="60" as="geometry" />
        </mxCell>
        <mxCell id="NGGsb7IZtr_YNf41euMT-47" value="" style="endArrow=none;html=1;rounded=0;entryX=0;entryY=0.5;entryDx=0;entryDy=0;" edge="1" parent="WIyWlLk6GJQsqaUBKTNV-1" target="NGGsb7IZtr_YNf41euMT-38">
          <mxGeometry width="50" height="50" relative="1" as="geometry">
            <mxPoint x="225" y="1320" as="sourcePoint" />
            <mxPoint x="425" y="1210" as="targetPoint" />
            <Array as="points">
              <mxPoint x="225" y="1090" />
            </Array>
          </mxGeometry>
        </mxCell>
        <mxCell id="NGGsb7IZtr_YNf41euMT-49" value="&#xa;Collision Detection&#xa;&#xa;" style="rounded=1;whiteSpace=wrap;html=1;" vertex="1" parent="WIyWlLk6GJQsqaUBKTNV-1">
          <mxGeometry x="360" y="1290" width="120" height="60" as="geometry" />
        </mxCell>
        <mxCell id="NGGsb7IZtr_YNf41euMT-50" value="" style="endArrow=none;html=1;rounded=0;entryX=0;entryY=0.5;entryDx=0;entryDy=0;" edge="1" parent="WIyWlLk6GJQsqaUBKTNV-1" target="NGGsb7IZtr_YNf41euMT-49">
          <mxGeometry width="50" height="50" relative="1" as="geometry">
            <mxPoint x="225" y="1320" as="sourcePoint" />
            <mxPoint x="425" y="1210" as="targetPoint" />
          </mxGeometry>
        </mxCell>
        <mxCell id="NGGsb7IZtr_YNf41euMT-51" value="" style="endArrow=none;html=1;rounded=0;entryX=1;entryY=0.5;entryDx=0;entryDy=0;" edge="1" parent="WIyWlLk6GJQsqaUBKTNV-1" target="NGGsb7IZtr_YNf41euMT-49">
          <mxGeometry width="50" height="50" relative="1" as="geometry">
            <mxPoint x="685" y="1320" as="sourcePoint" />
            <mxPoint x="425" y="1210" as="targetPoint" />
          </mxGeometry>
        </mxCell>
        <mxCell id="NGGsb7IZtr_YNf41euMT-52" value="" style="endArrow=none;html=1;rounded=0;" edge="1" parent="WIyWlLk6GJQsqaUBKTNV-1">
          <mxGeometry width="50" height="50" relative="1" as="geometry">
            <mxPoint x="685" y="1090" as="sourcePoint" />
            <mxPoint x="685" y="1320" as="targetPoint" />
          </mxGeometry>
        </mxCell>
        <mxCell id="NGGsb7IZtr_YNf41euMT-53" value="" style="endArrow=none;html=1;rounded=0;exitX=1;exitY=0.5;exitDx=0;exitDy=0;" edge="1" parent="WIyWlLk6GJQsqaUBKTNV-1" source="NGGsb7IZtr_YNf41euMT-43">
          <mxGeometry width="50" height="50" relative="1" as="geometry">
            <mxPoint x="375" y="1260" as="sourcePoint" />
            <mxPoint x="685" y="1090" as="targetPoint" />
          </mxGeometry>
        </mxCell>
        <mxCell id="NGGsb7IZtr_YNf41euMT-54" value="" style="endArrow=classic;html=1;rounded=0;exitX=0.5;exitY=1;exitDx=0;exitDy=0;" edge="1" parent="WIyWlLk6GJQsqaUBKTNV-1" source="NGGsb7IZtr_YNf41euMT-49">
          <mxGeometry width="50" height="50" relative="1" as="geometry">
            <mxPoint x="420" y="1410" as="sourcePoint" />
            <mxPoint x="420" y="1410" as="targetPoint" />
          </mxGeometry>
        </mxCell>
        <mxCell id="NGGsb7IZtr_YNf41euMT-55" value="If Ball Hits Player" style="shape=hexagon;perimeter=hexagonPerimeter2;whiteSpace=wrap;html=1;fixedSize=1;" vertex="1" parent="WIyWlLk6GJQsqaUBKTNV-1">
          <mxGeometry x="360" y="1410" width="120" height="80" as="geometry" />
        </mxCell>
        <mxCell id="NGGsb7IZtr_YNf41euMT-56" value="" style="endArrow=classic;html=1;rounded=0;exitX=0.5;exitY=1;exitDx=0;exitDy=0;" edge="1" parent="WIyWlLk6GJQsqaUBKTNV-1" source="NGGsb7IZtr_YNf41euMT-55">
          <mxGeometry width="50" height="50" relative="1" as="geometry">
            <mxPoint x="375" y="1760" as="sourcePoint" />
            <mxPoint x="420" y="1530" as="targetPoint" />
          </mxGeometry>
        </mxCell>
        <mxCell id="NGGsb7IZtr_YNf41euMT-57" value="Reverse the ball&#39;s y-speed to make it bounce back up." style="shape=parallelogram;perimeter=parallelogramPerimeter;whiteSpace=wrap;html=1;fixedSize=1;" vertex="1" parent="WIyWlLk6GJQsqaUBKTNV-1">
          <mxGeometry x="360" y="1530" width="120" height="60" as="geometry" />
        </mxCell>
        <mxCell id="NGGsb7IZtr_YNf41euMT-58" value="" style="endArrow=classic;html=1;rounded=0;exitX=0.408;exitY=1;exitDx=0;exitDy=0;exitPerimeter=0;" edge="1" parent="WIyWlLk6GJQsqaUBKTNV-1" source="NGGsb7IZtr_YNf41euMT-57">
          <mxGeometry width="50" height="50" relative="1" as="geometry">
            <mxPoint x="375" y="1660" as="sourcePoint" />
            <mxPoint x="410" y="1660" as="targetPoint" />
          </mxGeometry>
        </mxCell>
        <mxCell id="NGGsb7IZtr_YNf41euMT-60" value="" style="endArrow=classic;html=1;rounded=0;exitX=0;exitY=0.5;exitDx=0;exitDy=0;entryX=1;entryY=0.5;entryDx=0;entryDy=0;" edge="1" parent="WIyWlLk6GJQsqaUBKTNV-1" source="NGGsb7IZtr_YNf41euMT-0" target="NGGsb7IZtr_YNf41euMT-15">
          <mxGeometry width="50" height="50" relative="1" as="geometry">
            <mxPoint x="320" y="240" as="sourcePoint" />
            <mxPoint x="300" y="290" as="targetPoint" />
          </mxGeometry>
        </mxCell>
        <mxCell id="NGGsb7IZtr_YNf41euMT-64" value="" style="edgeStyle=orthogonalEdgeStyle;rounded=0;orthogonalLoop=1;jettySize=auto;html=1;" edge="1" parent="WIyWlLk6GJQsqaUBKTNV-1" source="NGGsb7IZtr_YNf41euMT-62" target="NGGsb7IZtr_YNf41euMT-63">
          <mxGeometry relative="1" as="geometry" />
        </mxCell>
        <mxCell id="NGGsb7IZtr_YNf41euMT-72" style="edgeStyle=orthogonalEdgeStyle;rounded=0;orthogonalLoop=1;jettySize=auto;html=1;exitX=1;exitY=0.5;exitDx=0;exitDy=0;" edge="1" parent="WIyWlLk6GJQsqaUBKTNV-1" source="NGGsb7IZtr_YNf41euMT-62">
          <mxGeometry relative="1" as="geometry">
            <mxPoint x="550" y="1790" as="targetPoint" />
            <Array as="points">
              <mxPoint x="551" y="1700" />
            </Array>
          </mxGeometry>
        </mxCell>
        <mxCell id="NGGsb7IZtr_YNf41euMT-62" value="&lt;strong&gt;If Ball Hits Block&lt;/strong&gt;:" style="shape=hexagon;perimeter=hexagonPerimeter2;whiteSpace=wrap;html=1;fixedSize=1;" vertex="1" parent="WIyWlLk6GJQsqaUBKTNV-1">
          <mxGeometry x="350" y="1660" width="120" height="80" as="geometry" />
        </mxCell>
        <mxCell id="NGGsb7IZtr_YNf41euMT-63" value="&lt;br&gt;Reduce the block&#39;s&lt;div&gt;&amp;nbsp;health by 1.&lt;br&gt;&lt;br&gt;&lt;/div&gt;" style="shape=parallelogram;perimeter=parallelogramPerimeter;whiteSpace=wrap;html=1;fixedSize=1;" vertex="1" parent="WIyWlLk6GJQsqaUBKTNV-1">
          <mxGeometry x="345" y="1790" width="130" height="60" as="geometry" />
        </mxCell>
        <mxCell id="NGGsb7IZtr_YNf41euMT-65" value="" style="endArrow=none;html=1;rounded=0;entryX=0;entryY=0.5;entryDx=0;entryDy=0;" edge="1" parent="WIyWlLk6GJQsqaUBKTNV-1" target="NGGsb7IZtr_YNf41euMT-62">
          <mxGeometry width="50" height="50" relative="1" as="geometry">
            <mxPoint x="260" y="1700" as="sourcePoint" />
            <mxPoint x="330" y="1704" as="targetPoint" />
          </mxGeometry>
        </mxCell>
        <mxCell id="NGGsb7IZtr_YNf41euMT-66" value="" style="endArrow=classic;html=1;rounded=0;" edge="1" parent="WIyWlLk6GJQsqaUBKTNV-1">
          <mxGeometry width="50" height="50" relative="1" as="geometry">
            <mxPoint x="260" y="1700" as="sourcePoint" />
            <mxPoint x="260" y="1780" as="targetPoint" />
          </mxGeometry>
        </mxCell>
        <mxCell id="NGGsb7IZtr_YNf41euMT-67" value="&#xa;&lt;li&gt;If the block&#39;s health reaches 0, destroy the block and increase the score by 10.&lt;/li&gt;&lt;li&gt;&lt;/li&gt;&#xa;&#xa;" style="shape=parallelogram;perimeter=parallelogramPerimeter;whiteSpace=wrap;html=1;fixedSize=1;" vertex="1" parent="WIyWlLk6GJQsqaUBKTNV-1">
          <mxGeometry x="180" y="1790" width="160" height="60" as="geometry" />
        </mxCell>
        <mxCell id="NGGsb7IZtr_YNf41euMT-73" value="Check for a random power-up spawn" style="shape=parallelogram;perimeter=parallelogramPerimeter;whiteSpace=wrap;html=1;fixedSize=1;" vertex="1" parent="WIyWlLk6GJQsqaUBKTNV-1">
          <mxGeometry x="490" y="1790" width="120" height="60" as="geometry" />
        </mxCell>
        <mxCell id="NGGsb7IZtr_YNf41euMT-74" value="" style="endArrow=none;html=1;rounded=0;" edge="1" parent="WIyWlLk6GJQsqaUBKTNV-1">
          <mxGeometry width="50" height="50" relative="1" as="geometry">
            <mxPoint x="690" y="1700" as="sourcePoint" />
            <mxPoint x="550" y="1700" as="targetPoint" />
          </mxGeometry>
        </mxCell>
        <mxCell id="NGGsb7IZtr_YNf41euMT-75" value="" style="endArrow=classic;html=1;rounded=0;" edge="1" parent="WIyWlLk6GJQsqaUBKTNV-1">
          <mxGeometry width="50" height="50" relative="1" as="geometry">
            <mxPoint x="690" y="1700" as="sourcePoint" />
            <mxPoint x="690" y="1780" as="targetPoint" />
          </mxGeometry>
        </mxCell>
        <mxCell id="NGGsb7IZtr_YNf41euMT-76" value="If a power-up spawns, it moves downwards at a speed of 1" style="shape=parallelogram;perimeter=parallelogramPerimeter;whiteSpace=wrap;html=1;fixedSize=1;" vertex="1" parent="WIyWlLk6GJQsqaUBKTNV-1">
          <mxGeometry x="620" y="1790" width="120" height="60" as="geometry" />
        </mxCell>
        <mxCell id="NGGsb7IZtr_YNf41euMT-77" value="" style="endArrow=none;html=1;rounded=0;" edge="1" parent="WIyWlLk6GJQsqaUBKTNV-1" target="NGGsb7IZtr_YNf41euMT-67">
          <mxGeometry width="50" height="50" relative="1" as="geometry">
            <mxPoint x="260" y="1910" as="sourcePoint" />
            <mxPoint x="270" y="1960" as="targetPoint" />
          </mxGeometry>
        </mxCell>
        <mxCell id="NGGsb7IZtr_YNf41euMT-78" value="" style="endArrow=none;html=1;rounded=0;" edge="1" parent="WIyWlLk6GJQsqaUBKTNV-1">
          <mxGeometry width="50" height="50" relative="1" as="geometry">
            <mxPoint x="400" y="1910" as="sourcePoint" />
            <mxPoint x="400" y="1850" as="targetPoint" />
          </mxGeometry>
        </mxCell>
        <mxCell id="NGGsb7IZtr_YNf41euMT-79" value="" style="endArrow=none;html=1;rounded=0;" edge="1" parent="WIyWlLk6GJQsqaUBKTNV-1">
          <mxGeometry width="50" height="50" relative="1" as="geometry">
            <mxPoint x="550" y="1910" as="sourcePoint" />
            <mxPoint x="549.5" y="1850" as="targetPoint" />
          </mxGeometry>
        </mxCell>
        <mxCell id="NGGsb7IZtr_YNf41euMT-80" value="" style="endArrow=none;html=1;rounded=0;" edge="1" parent="WIyWlLk6GJQsqaUBKTNV-1">
          <mxGeometry width="50" height="50" relative="1" as="geometry">
            <mxPoint x="680" y="1910" as="sourcePoint" />
            <mxPoint x="679.5" y="1850" as="targetPoint" />
          </mxGeometry>
        </mxCell>
        <mxCell id="NGGsb7IZtr_YNf41euMT-81" value="" style="endArrow=none;html=1;rounded=0;" edge="1" parent="WIyWlLk6GJQsqaUBKTNV-1">
          <mxGeometry width="50" height="50" relative="1" as="geometry">
            <mxPoint x="260" y="1910" as="sourcePoint" />
            <mxPoint x="680" y="1910" as="targetPoint" />
          </mxGeometry>
        </mxCell>
        <mxCell id="NGGsb7IZtr_YNf41euMT-83" value="Power-Up Collection" style="rounded=1;whiteSpace=wrap;html=1;" vertex="1" parent="WIyWlLk6GJQsqaUBKTNV-1">
          <mxGeometry x="400" y="1970" width="120" height="60" as="geometry" />
        </mxCell>
        <mxCell id="NGGsb7IZtr_YNf41euMT-85" value="" style="endArrow=classic;html=1;rounded=0;" edge="1" parent="WIyWlLk6GJQsqaUBKTNV-1" target="NGGsb7IZtr_YNf41euMT-83">
          <mxGeometry width="50" height="50" relative="1" as="geometry">
            <mxPoint x="460" y="1910" as="sourcePoint" />
            <mxPoint x="340" y="2140" as="targetPoint" />
          </mxGeometry>
        </mxCell>
      </root>
    </mxGraphModel>
  </diagram>
</mxfile>
